{"title":"3.2010.DVDRip.XviD [Tom Tykwer]","uid":6455070,"size":1048621056,"categoryP":"video","categoryS":"movies","magnet":"?xt=urn:btih:ee6f079785d4878e400ee9c2ebd98bb3b6991ebe&amp;dn=3.2010.DVDRip.XviD+%5BTom+Tykwer%5D&amp;tr=udp%3A%2F%2Ftracker.openbittorrent.com%3A80&amp;tr=udp%3A%2F%2Fopen.demonii.com%3A1337&amp;tr=udp%3A%2F%2Ftracker.coppersurfer.tk%3A6969&amp;tr=udp%3A%2F%2Fexodus.desync.com%3A6969","seeders":2,"leechers":0,"uploader":"hermina14","files":1,"time":1307554558,"description":"3.2010.DVDRip.XviD.avi\nFormat : AVI\nFormat/Info : Audio Video Interleave\nFile size : 1 000 MiB\nDuration : 1h 58mn\nOverall bit rate : 1 177 Kbps\nWriting application : VirtualDubMod 1.5.10.2 (build 2540/release)\nWriting library : VirtualDubMod build 2540/release\nVideo\nFormat : MPEG-4 Visual\nFormat profile : Streaming Video@L1\nFormat settings, BVOP : Yes\nFormat settings, QPel : No\nFormat settings, GMC : No warppoints\nFormat settings, Matrix : Default (MPEG)\nCodec ID : XVID\nCodec ID/Hint : XviD\nDuration : 1h 58mn\nBit rate : 720 Kbps\nWidth : 720 pixels\nHeight : 304 pixels\nDisplay aspect ratio : 2.35\nFrame rate : 24.000 fps\nResolution : 24 bits\nColorimetry : 4:2:0\nScan type : Progressive\nBits/(Pixel*Frame) : 0.137\nStream size : 611 MiB (61%)\nWriting library : XviD 1.2.1 (UTC 2008-12-04)\nAudio\nFormat : AC-3\nFormat/Info : Audio Coding 3\nCodec ID : 2000\nDuration : 1h 58mn\nBit rate mode : Constant\nBit rate : 448 Kbps\nChannel(s) : 6 channels\nChannel positions : Front: L C R, Surround: L R, LFE\nSampling rate : 48.0 KHz\nStream size : 381 MiB (38%)\nAlignment : Split accross interleaves\nInterleave, duration : 42 ms (1.00 video frame)\nInterleave, preload duration : 500 ms","torrent":{"xt":"urn:btih:ee6f079785d4878e400ee9c2ebd98bb3b6991ebe","amp;dn":"3.2010.DVDRip.XviD+%5BTom+Tykwer%5D","amp;tr":["udp%3A%2F%2Ftracker.openbittorrent.com%3A80","udp%3A%2F%2Fopen.demonii.com%3A1337","udp%3A%2F%2Ftracker.coppersurfer.tk%3A6969","udp%3A%2F%2Fexodus.desync.com%3A6969"],"infoHash":"ee6f079785d4878e400ee9c2ebd98bb3b6991ebe","infoHashBuffer":{"type":"Buffer","data":[238,111,7,151,133,212,135,142,64,14,233,194,235,217,139,179,182,153,30,190]},"announce":[],"urlList":[]}}